<?xml version="1.0" encoding="utf-8"?>
<!-- Generator: Adobe Illustrator 26.5.0, SVG Export Plug-In . SVG Version: 6.00 Build 0)  -->
<svg version="1.1" id="Lager_1" xmlns="http://www.w3.org/2000/svg" xmlns:xlink="http://www.w3.org/1999/xlink" x="0px" y="0px"
	 viewBox="0 0 17 17" style="enable-background:new 0 0 17 17;" xml:space="preserve">
<style type="text/css">
	.st0{fill:#FFFFFF;}
</style>
<path class="st0" d="M13,4V1.6C13,0.7,12.3,0,11.4,0H5.7C4.8,0,4,0.7,4,1.6V4H1v13h15V4H13z M5,1.6C5,1.3,5.3,1,5.7,1h5.7
	C11.7,1,12,1.3,12,1.6V4H5V1.6z M15,16H2V8h13V16z M15,7H2V5h2v0.6h1V5h7v0.6h1V5h2V7z"/>
</svg>
