<?xml version="1.0" encoding="utf-8"?>
<!-- Generator: Adobe Illustrator 26.5.0, SVG Export Plug-In . SVG Version: 6.00 Build 0)  -->
<svg version="1.1" id="Lager_1" xmlns="http://www.w3.org/2000/svg" xmlns:xlink="http://www.w3.org/1999/xlink" x="0px" y="0px"
	 viewBox="0 0 17 17" style="enable-background:new 0 0 17 17;" xml:space="preserve">
<style type="text/css">
	.st0{fill:#FFFFFF;}
</style>
<path class="st0" d="M16.6,15.9l-5.2-5.2c1-1.1,1.6-2.6,1.6-4.2C13,2.9,10.1,0,6.5,0C4.8,0,3.1,0.6,1.9,1.9C0.7,3.1,0,4.7,0,6.5
	C0,10.1,2.9,13,6.5,13c1.6,0,3.1-0.6,4.2-1.6l5.2,5.2L16.6,15.9z M6.5,12C3.5,12,1,9.5,1,6.5C1,5,1.6,3.6,2.6,2.6C3.6,1.5,5,1,6.5,1
	c3,0,5.5,2.5,5.5,5.5C12,9.5,9.5,12,6.5,12z"/>
</svg>
